<svg width="24" height="26" viewBox="0 0 24 26" fill="none" xmlns="http://www.w3.org/2000/svg">
<path fill-rule="evenodd" clip-rule="evenodd" d="M21.88 25.0716H2.12004C0.971359 25.0716 0.0400391 24.0888 0.0400391 22.8768L2.12004 9.70793C2.4726 7.8193 3.5074 7.51313 4.65608 7.51313H6.03512C6.81928 3.70075 9.19308 0.928711 12 0.928711C14.807 0.928711 17.1808 3.70075 17.965 7.51313H19.344C20.4927 7.51313 21.5275 7.8193 21.88 9.70793L23.96 22.8768C23.96 24.0888 23.0287 25.0716 21.88 25.0716ZM12 2.02611C9.737 2.02611 7.81664 4.31859 7.10268 7.51313H16.8979C16.1834 4.31859 14.2636 2.02611 12 2.02611ZM20.84 9.70793C20.6799 8.96664 20.3424 8.61053 19.6076 8.61053H18.1371C18.201 9.14606 18.24 9.69421 18.24 10.2566C18.24 10.5595 18.0076 10.8053 17.72 10.8053C17.4325 10.8053 17.2 10.5595 17.2 10.2566C17.2 9.69312 17.1642 9.14222 17.0955 8.61053H6.90456C6.83644 9.14222 6.80004 9.69312 6.80004 10.2566C6.80004 10.5595 6.5676 10.8053 6.28004 10.8053C5.99248 10.8053 5.76004 10.5595 5.76004 10.2566C5.76004 9.69421 5.79904 9.14606 5.86248 8.61053H4.39192C3.65768 8.61053 3.32072 8.96664 3.16004 9.70793L1.08004 22.8768C1.08004 23.4825 1.54596 23.9742 2.12004 23.9742H21.88C22.4541 23.9742 22.92 23.4825 22.92 22.8768L20.84 9.70793Z" fill="#333232"/>
</svg>
